<svg width="449" height="264" viewBox="0 0 449 264" fill="none" xmlns="http://www.w3.org/2000/svg">
<path d="M343.325 206.48L353.565 166.672H374.045L357.405 206.48H343.325Z" fill="#FABF9A"/>
<path d="M220.893 83.2124C220.893 67.8164 237.56 58.1939 250.893 65.8919L335.643 114.822C348.976 122.52 348.976 141.765 335.643 149.463L250.893 198.394C237.56 206.092 220.893 196.469 220.893 181.073L220.893 83.2124Z" fill="#C0DE69"/>
<path d="M83.5715 82.891C83.5715 67.495 100.238 57.8725 113.571 65.5705L198.321 114.501C211.655 122.199 211.655 141.444 198.321 149.142L113.571 198.072C100.238 205.77 83.5715 196.148 83.5715 180.752L83.5715 82.891Z" fill="#D1EAF9"/>
<path d="M152.893 83.2124C152.893 67.8164 169.56 58.1939 182.893 65.8919L267.643 114.822C280.976 122.52 280.976 141.765 267.643 149.463L182.893 198.394C169.56 206.092 152.893 196.469 152.893 181.073L152.893 83.2124Z" stroke="#FABF9A" stroke-width="7"/>
</svg>
